<svg width="24" height="24" viewBox="0 0 24 24" fill="none" xmlns="http://www.w3.org/2000/svg">
<g clip-path="url(#clip0)">
<path d="M4.92994 2L11.2739 2.7948L8.48408 6.08756L2.14014 5.29277L4.92994 2Z" fill="#EC7C80"/>
<path d="M2.14014 5.29297L8.48408 6.08776L10.7771 10.1753L12.7261 6.61764L19.0701 7.41244L21.172 13.8087L10.586 22.4002L0 11.1215L2.14014 5.29297Z" fill="#E95352"/>
<path d="M8.48389 6.12478L11.2737 2.83203L13.1463 6.16264L12.7259 6.65466L10.7769 10.2124L8.48389 6.12478Z" fill="#C53633"/>
<path d="M21.8982 4.15723L24.0001 10.5535L21.2103 13.8463L19.1084 7.44997L21.8982 4.15723Z" fill="#C53633"/>
<path d="M15.5159 3.3623L21.8598 4.15712L19.07 7.44987L12.7261 6.65507L13.1464 6.16306L15.5159 3.3623Z" fill="#EC7C80"/>
<path d="M1.41406 10.5914L2.6752 12.0297L3.40133 9.98587L1.71979 9.75879L1.41406 10.5914Z" fill="white"/>
<path d="M4.62409 6.73101L2.94255 6.50391L2.17822 8.58554L3.85976 8.81264L4.62409 6.73101Z" fill="white"/>
</g>
<defs>
<clipPath id="clip0">
<rect width="24" height="24" fill="white"/>
</clipPath>
</defs>
</svg>
