<svg width="40" height="40" viewBox="0 0 40 40" fill="none" xmlns="http://www.w3.org/2000/svg">
<path d="M40 27.3835V7.69059C39.9991 5.651 39.1883 3.69523 37.746 2.25314C36.3037 0.811042 34.3478 0.00062352 32.3082 0L7.69059 0C5.6512 0.000935283 3.69562 0.811492 2.25355 2.25355C0.811492 3.69562 0.000935283 5.6512 0 7.69059L0 32.3094C0 34.3491 0.810256 36.3052 2.25252 37.7475C3.69479 39.1897 5.65092 40 7.69059 40H32.3082C34.1123 39.9988 35.8587 39.3641 37.2426 38.2067C38.6265 37.0492 39.5599 35.4425 39.88 33.6671C37.84 32.7847 29.0012 28.9659 24.3953 26.7694C20.8906 31.0129 17.22 33.5612 11.6882 33.5612C6.15529 33.5612 2.46353 30.1541 2.90588 25.9847C3.19882 23.2471 5.07529 18.7718 13.2306 19.5388C17.5282 19.9424 19.4953 20.7435 23 21.9012C23.9352 20.1726 24.6838 18.3494 25.2329 16.4624H9.69059V14.9212H17.38V12.1565H8V10.4612H17.38V6.47059C17.38 6.47059 17.4659 5.84588 18.1553 5.84588H22.0024V10.4612H32V12.1565H22.0012V14.9212H30.1588C29.4082 17.9741 28.2706 20.7788 26.8459 23.2306C29.2153 24.0871 40 27.3835 40 27.3835ZM11.0753 30.9212C5.23059 30.9212 4.30588 27.2306 4.61647 25.6894C4.92353 24.1529 6.61647 22.1518 9.86588 22.1518C13.6012 22.1518 16.9459 23.1071 20.9612 25.0624C18.14 28.7341 14.6753 30.9212 11.0753 30.9212Z" fill="#447BFC"/>
</svg>
