<svg width="150" height="150" viewBox="0 0 150 150" fill="none" xmlns="http://www.w3.org/2000/svg">
<path fill-rule="evenodd" clip-rule="evenodd" d="M23.0488 49.9132L54.4335 27L75.0305 33.0139L75.0891 38.3912L80.2378 39.8951L80.2961 45.2725L84.9958 46.6436L95.6279 39.0259L121.373 46.5432L121.49 57.298L126.639 58.8018L126.725 66.8701L131.874 68.3713L131.989 79.1282L126.896 82.778L126.926 85.6889L70.0849 128L59.783 124.912L59.7247 119.535L54.5739 118.04L54.5177 112.662L49.3689 111.167L49.3106 105.79L44.1619 104.295L44.1037 98.9172L38.9549 97.4223L38.8987 92.0426L33.75 90.5477L33.6917 85.1702L28.5408 83.6753L28.4847 78.2956L23.3359 76.8007L23.2496 68.7366L18.0987 67.2417L18 56.4912L23.0793 52.8525L23.0488 49.9132Z" fill="#E95352" stroke="black" stroke-width="8"/>
<path d="M23.0992 52.8496L18.0044 56.4994L23.1553 58.0029L23.0992 52.8496Z" fill="#BDBDBD"/>
<path d="M28.2176 51.4404L28.1615 46.2871L23.0688 49.9369L28.2176 51.4404Z" fill="#BDBDBD"/>
<path d="M38.6318 65.2021L38.716 73.2684L38.6318 65.2021Z" fill="#BB3832"/>
<path d="M38.716 73.2684L43.8648 74.7719L43.7784 66.7056L38.6318 65.2021L38.716 73.2684Z" fill="white"/>
<path d="M33.3101 47.5659L33.2561 42.4126L28.1592 46.0624L33.3101 47.5659Z" fill="#BDBDBD"/>
<path d="M43.7222 61.3281L43.7783 66.7056H43.7805L43.7222 61.3281Z" fill="#BB3832"/>
<path d="M43.7222 61.3281L43.7805 66.7056L51.5047 68.9608L51.4464 63.5833L43.7222 61.3281Z" fill="white"/>
<path d="M53.9074 53.5797L75.1047 38.3912L75.0464 33.0137L53.8491 48.2001L53.9074 53.5797Z" fill="#4F4F4F"/>
<path d="M53.8489 48.2003L75.0462 33.0139L54.4491 27L33.2539 42.1885L53.8489 48.2003Z" fill="#BDBDBD"/>
<path d="M59.0562 55.0836L59.1144 60.4611L80.3117 45.2725L80.2535 39.895L59.0562 55.0836Z" fill="#4F4F4F"/>
<path d="M59.056 55.0836L80.2533 39.8951L75.1045 38.3916L53.9072 53.5802L59.056 55.0836Z" fill="#BDBDBD"/>
<path d="M59.1143 60.4611L69.4118 63.4659L69.3556 58.0906L74.5044 59.5941L74.4461 54.2144L95.0454 60.2283L100.192 61.7318L121.389 46.5433L116.243 45.0398L95.6434 39.0259L85.0113 46.6436L80.3116 45.2726L59.1143 60.4611Z" fill="#BDBDBD"/>
<path d="M70.1008 128L126.942 85.6889L126.912 82.778L132.005 79.1282L131.89 68.3711L110.693 83.5596L110.807 94.3146L105.658 92.8133L105.745 100.877L100.594 99.3739L100.652 104.754L95.5034 103.25L95.5596 108.628L90.4108 107.124L90.4669 112.502L85.3182 110.998L85.3765 116.376L80.2277 114.872L80.286 120.252L75.1351 118.748L75.1912 124.124L70.0425 122.622L70.1008 128Z" fill="#4F4F4F"/>
<path d="M110.693 83.56L131.89 68.3715L126.741 66.8701L105.544 82.0565L110.693 83.56Z" fill="#BDBDBD"/>
<path d="M105.544 82.0565L126.741 66.8701L126.655 58.8018L105.458 73.9903L105.544 82.0565Z" fill="#4F4F4F"/>
<path d="M105.457 73.9904L126.655 58.8018L121.506 57.2983L100.309 72.4869L105.457 73.9904Z" fill="#BDBDBD"/>
<path d="M100.251 67.109L100.309 72.4865L121.506 57.298L121.448 51.9205L121.39 46.543L100.192 61.7315L100.251 67.109Z" fill="#4F4F4F"/>
<path d="M75.1932 124.126L75.1349 118.749L80.2858 120.244L80.2275 114.864L85.3763 116.359L85.3201 110.981L90.4689 112.476L90.4106 107.099L95.5616 108.594L95.5033 103.216L100.652 104.711L100.596 99.3315L105.745 100.826L105.658 92.7623L110.807 94.2573L110.693 83.5002L105.544 82.0052L105.46 73.9368L100.309 72.4419L100.25 67.0644L100.194 61.6869L95.0456 60.192L74.4484 54.178L74.5046 59.5577L69.3558 58.0627L69.4141 63.4402L59.1145 60.4333L59.0583 55.0558L53.9074 53.5609L53.8491 48.1812L33.2541 42.1694V42.383L33.3081 47.5363L28.1593 46.0413V46.2549L28.2133 51.4081L23.0645 49.9132L23.0948 52.8262L23.1509 57.9816L18 56.4866L18.1145 67.2417L23.2654 68.7366L23.3517 76.8007L28.5005 78.2956L28.5565 83.6753L33.7075 85.1702L33.7658 90.5477L38.9145 92.0426L38.9707 97.4223L44.1194 98.9172L44.1777 104.295L49.3264 105.79L49.3847 111.167L54.5334 112.662L54.5896 118.04L59.7405 119.535L59.7988 124.912L70.0962 127.919L70.0401 122.541L75.1932 124.126ZM38.6317 65.2021L43.7804 66.6971L43.7221 61.3196L51.4464 63.5791L51.5047 68.9566L43.7804 66.7013L43.8668 74.7676L38.7181 73.2726L38.6317 65.2021Z" fill="#727272"/>
</svg>
