<svg width="168" height="80" viewBox="0 0 168 80" fill="none" xmlns="http://www.w3.org/2000/svg">
<g clip-path="url(#clip0)">
<path d="M54.5758 27.3129H44.6351V33.2128H54.5758V37.1656H44.6351V52.9182H70.4556V37.1656H60.5201V33.2128H70.4556V27.3129H54.5758ZM64.5113 43.0655V47.0183H50.5975V43.0655H54.5758V45.406H60.5252V43.0655H64.5113Z" fill="#14AF64"/>
<path d="M32.8986 27.3129H26.9517V37.1656H17.0162V43.0655H26.9517V52.9182H32.8986V43.0655H42.8367V37.1656H32.8986V27.3129Z" fill="#14AF64"/>
<path d="M13.5645 24.5914L10.0007 28.1254L15.6962 33.7734L19.2599 30.2394L13.5645 24.5914Z" fill="#14AF64"/>
<path d="M18.1929 19.9996L14.6292 23.5336L20.3264 29.1834L23.8901 25.6494L18.1929 19.9996Z" fill="#14AF64"/>
<path d="M148.072 29.3545H144.647V45.3958H148.072V29.3545Z" fill="#14AF64"/>
<path d="M149.058 27.392V46.6018L145.856 49.7779L149.058 52.9565H155V27.392H149.058Z" fill="#14AF64"/>
<path d="M144.078 42.0051L140.872 38.8265L139.46 40.2267V38.5403H143.758V32.6481H139.46V27.3512H133.519V32.6481H129.218V38.5403H133.519V46.1189L129.922 49.6859L133.127 52.8645L135.353 50.6543L137.719 53L146.039 52.9182L139.556 46.4894L144.078 42.0051Z" fill="#14AF64"/>
<path d="M72.8622 37.7073H77.7449L72.7849 42.626L75.9902 45.8046L80.0175 41.8109H84.6632V46.6018L81.4579 49.7779L84.6632 52.9565H90.6049V48.1247L95.4773 52.9565L98.6827 49.7779L94.6193 45.7484L98.6827 41.7189L95.4773 38.5403L90.6049 43.3721V41.8109V38.599V38.4125H83.4444L84.1556 37.7073H98.6827V34.3115H72.8622V37.7073Z" fill="#14AF64"/>
<path d="M88.7444 28.4908V27.392H82.8027V28.4908H78.8038H72.8621V32.648V33.6573H78.8038V32.648H92.7408V33.6573H98.6825V32.648V28.4908H92.7408H88.7444Z" fill="#14AF64"/>
<path d="M79.4299 43.8954L73.5067 49.7692L76.7115 52.9473L82.6347 47.0735L79.4299 43.8954Z" fill="#14AF64"/>
<path d="M110.004 40.3953V38.5403V34.5031H109.123L110.589 33.0518L104.841 27.3512L101.636 30.5298L105.642 34.5031H101.033V40.3953H104.063V52.9565H110.004V52.9412L110.022 52.9565L113.228 49.7779L110.004 46.5839V40.3953Z" fill="#14AF64"/>
<path d="M121.942 27.3512H116V35.1138H111.13V41.006H116V52.9565H121.942V41.006H126.812V35.1138H121.942V27.3512Z" fill="#14AF64"/>
</g>
<defs>
<clipPath id="clip0">
<rect width="145" height="33" fill="white" transform="translate(10 20)"/>
</clipPath>
</defs>
</svg>
