<svg width="40" height="40" viewBox="0 0 40 40" fill="none" xmlns="http://www.w3.org/2000/svg">
<path d="M11.3294 11.3727C10.438 11.3727 9.53905 11.9622 9.53905 12.8559C9.53905 13.7486 10.438 14.3445 11.3294 14.3445C12.2212 14.3445 12.8137 13.7486 12.8137 12.8559C12.8137 11.9611 12.22 11.3727 11.3294 11.3727ZM23.519 19.998C22.9264 19.998 22.3296 20.5936 22.3296 21.1874C22.3296 21.7883 22.9264 22.3768 23.519 22.3768C24.4179 22.3768 25.0075 21.7884 25.0075 21.1874C25.0076 20.5937 24.418 19.998 23.519 19.998ZM40 6.08942C40 2.72651 37.2737 0 33.9106 0H6.08942C2.72655 0 0 2.72629 0 6.08942V33.9106C0 37.2735 2.72634 40 6.08942 40H33.9106C37.2734 40 40 37.2737 40 33.9106V6.08942ZM15.1928 26.5475C13.7087 26.5475 12.5149 26.2443 11.0275 25.9504L6.87067 28.0348L8.06019 24.4579C5.08324 22.3768 3.30114 19.6967 3.30114 16.4294C3.30114 10.7705 8.65586 6.31557 15.1928 6.31557C21.0401 6.31557 26.1622 9.8756 27.1907 14.6671C26.8126 14.6249 26.4305 14.5976 26.0452 14.5976C20.3966 14.5976 15.9357 18.8134 15.9357 24.0082C15.9357 24.8723 16.0707 25.7052 16.3034 26.4996C15.9357 26.5281 15.5653 26.5472 15.1927 26.5472L15.1928 26.5475ZM32.7338 30.7126L33.6273 33.6841L30.3652 31.8979C29.1758 32.1958 27.981 32.4948 26.7968 32.4948C21.139 32.4948 16.6831 28.6275 16.6831 23.8655C16.6831 19.1107 21.1388 15.236 26.7968 15.236C32.1399 15.236 36.8978 19.1119 36.8978 23.8655C36.8987 26.5477 35.1199 28.9223 32.7338 30.713V30.7126ZM30.0601 19.998C29.4717 19.998 28.8791 20.5936 28.8791 21.1874C28.8791 21.7883 29.4717 22.3768 30.0601 22.3768C30.9515 22.3768 31.5486 21.7884 31.5486 21.1874C31.5487 20.5937 30.9507 19.998 30.0601 19.998ZM19.6517 14.3442C20.5475 14.3442 21.1401 13.7484 21.1401 12.8557C21.1401 11.9609 20.5474 11.3724 19.6517 11.3724C18.76 11.3724 17.8664 11.962 17.8664 12.8557C17.8664 13.7483 18.7599 14.3442 19.6517 14.3442Z" fill="#12D21F"/>
</svg>
